HIERARCHY
ROOT Root
{
  OFFSET 0.0 0.0 0.0
  CHANNELS 6 Xposition Yposition Zposition Zrotation Yrotation Xrotation
  JOINT Hips
  {
    OFFSET 0.0 100.0 0.0
    CHANNELS 6 Xposition Yposition Zposition Zrotation Yrotation Xrotation
    JOINT Spine1
    {
      OFFSET -0.013727 5.003763 -0.053727
      CHANNELS 3 Zrotation Yrotation Xrotation
      JOINT Spine2
      {
        OFFSET -0.0 7.125301 -0.029825
        CHANNELS 3 Zrotation Yrotation Xrotation
        JOINT Chest
        {
          OFFSET -1e-06 7.550063 -0.815971
          CHANNELS 3 Zrotation Yrotation Xrotation
          JOINT Neck1
          {
            OFFSET -0.181677 26.311295 -0.553348
            CHANNELS 3 Zrotation Yrotation Xrotation
            JOINT Neck2
            {
              OFFSET -3e-06 7.709397 2.302585
              CHANNELS 3 Zrotation Yrotation Xrotation
              JOINT Head
              {
                OFFSET -5e-06 6.128916 1.953709
                CHANNELS 3 Zrotation Yrotation Xrotation
                JOINT HeadEnd
                {
                  OFFSET 0.003598 16.065403 -1.835379
                  CHANNELS 3 Zrotation Yrotation Xrotation
                }
                JOINT Jaw
                {
                  OFFSET 0.002637 0.475592 3.094941
                  CHANNELS 3 Zrotation Yrotation Xrotation
                }
                JOINT LeftEye
                {
                  OFFSET 3.206381 5.380205 7.586883
                  CHANNELS 3 Zrotation Yrotation Xrotation
                }
                JOINT RightEye
                {
                  OFFSET -3.22244 5.361869 7.558234
                  CHANNELS 3 Zrotation Yrotation Xrotation
                }
              }
            }
          }
          JOINT LeftShoulder
          {
            OFFSET 1.621652 23.237164 5.113413
            CHANNELS 3 Zrotation Yrotation Xrotation
            JOINT LeftArm
            {
              OFFSET 14.919846 2e-06 -5.502326
              CHANNELS 3 Zrotation Yrotation Xrotation
              JOINT LeftForeArm
              {
                OFFSET 28.739307 0.0 -0.002588
                CHANNELS 3 Zrotation Yrotation Xrotation
                JOINT LeftHand
                {
                  OFFSET 27.093981 -1e-06 0.002609
                  CHANNELS 3 Zrotation Yrotation Xrotation
                  JOINT LeftHandThumb1
                  {
                    OFFSET 2.276482 -1.392045 3.191413
                    CHANNELS 3 Zrotation Yrotation Xrotation
                    JOINT LeftHandThumb2
                    {
                      OFFSET 4.012836 -1.828127 1.641654
                      CHANNELS 3 Zrotation Yrotation Xrotation
                      JOINT LeftHandThumb3
                      {
                        OFFSET 2.798515 0.0 -3e-06
                        CHANNELS 3 Zrotation Yrotation Xrotation
                        JOINT LeftHandThumbEnd
                        {
                          OFFSET 3.180793 -4e-06 4e-06
                          CHANNELS 3 Zrotation Yrotation Xrotation
                        }
                      }
                    }
                  }
                  JOINT LeftHandIndex1
                  {
                    OFFSET 3.247555 -0.531998 2.296169
                    CHANNELS 3 Zrotation Yrotation Xrotation
                    JOINT LeftHandIndex2
                    {
                      OFFSET 6.364578 0.01206 0.1786
                      CHANNELS 3 Zrotation Yrotation Xrotation
                      JOINT LeftHandIndex3
                      {
                        OFFSET 3.662364 0.0 0.0
                        CHANNELS 3 Zrotation Yrotation Xrotation
                        JOINT LeftHandIndex4
                        {
                          OFFSET 2.329242 4e-06 4e-06
                          CHANNELS 3 Zrotation Yrotation Xrotation
                          JOINT LeftHandIndexEnd
                          {
                            OFFSET 2.759615 -0.180537 -0.113024
                            CHANNELS 3 Zrotation Yrotation Xrotation
                          }
                        }
                      }
                    }
                  }
                  JOINT LeftHandMiddle1
                  {
                    OFFSET 3.163495 0.240981 1.000332
                    CHANNELS 3 Zrotation Yrotation Xrotation
                    JOINT LeftHandMiddle2
                    {
                      OFFSET 6.19078 -0.259278 -1.002548
                      CHANNELS 3 Zrotation Yrotation Xrotation
                      JOINT LeftHandMiddle3
                      {
                        OFFSET 4.35652 -4e-06 -1e-06
                        CHANNELS 3 Zrotation Yrotation Xrotation
                        JOINT LeftHandMiddle4
                        {
                          OFFSET 2.996877 -8e-06 0.0
                          CHANNELS 3 Zrotation Yrotation Xrotation
                          JOINT LeftHandMiddleEnd
                          {
                            OFFSET 2.304287 -0.294569 -0.031741
                            CHANNELS 3 Zrotation Yrotation Xrotation
                          }
                        }
                      }
                    }
                  }
                  JOINT LeftHandRing1
                  {
                    OFFSET 2.882643 -0.053652 -0.322543
                    CHANNELS 3 Zrotation Yrotation Xrotation
                    JOINT LeftHandRing2
                    {
                      OFFSET 5.854541 -0.486202 -1.373841
                      CHANNELS 3 Zrotation Yrotation Xrotation
                      JOINT LeftHandRing3
                      {
                        OFFSET 4.350578 0.0 3e-06
                        CHANNELS 3 Zrotation Yrotation Xrotation
                        JOINT LeftHandRing4
                        {
                          OFFSET 2.651321 7e-06 2e-06
                          CHANNELS 3 Zrotation Yrotation Xrotation
                          JOINT LeftHandRingEnd
                          {
                            OFFSET 1.936105 0.077687 -7.1e-05
                            CHANNELS 3 Zrotation Yrotation Xrotation
                          }
                        }
                      }
                    }
                  }
                  JOINT LeftHandPinky1
                  {
                    OFFSET 2.8655 -0.310005 -1.600378
                    CHANNELS 3 Zrotation Yrotation Xrotation
                    JOINT LeftHandPinky2
                    {
                      OFFSET 5.087849 -1.331141 -1.77123
                      CHANNELS 3 Zrotation Yrotation Xrotation
                      JOINT LeftHandPinky3
                      {
                        OFFSET 3.070974 4e-06 0.0
                        CHANNELS 3 Zrotation Yrotation Xrotation
                        JOINT LeftHandPinky4
                        {
                          OFFSET 1.549672 0.0 1e-06
                          CHANNELS 3 Zrotation Yrotation Xrotation
                          JOINT LeftHandPinkyEnd
                          {
                            OFFSET 1.944893 -0.157802 0.057219
                            CHANNELS 3 Zrotation Yrotation Xrotation
                          }
                        }
                      }
                    }
                  }
                }
              }
            }
          }
          JOINT RightShoulder
          {
            OFFSET -1.380118 23.180309 5.214158
            CHANNELS 3 Zrotation Yrotation Xrotation
            JOINT RightArm
            {
              OFFSET -15.037196 1.2e-05 -5.545604
              CHANNELS 3 Zrotation Yrotation Xrotation
              JOINT RightForeArm
              {
                OFFSET -28.736639 2e-06 -0.002597
                CHANNELS 3 Zrotation Yrotation Xrotation
                JOINT RightHand
                {
                  OFFSET -27.133619 -0.0 0.002613
                  CHANNELS 3 Zrotation Yrotation Xrotation
                  JOINT RightHandThumb1
                  {
                    OFFSET -2.274032 -1.383988 3.163127
                    CHANNELS 3 Zrotation Yrotation Xrotation
                    JOINT RightHandThumb2
                    {
                      OFFSET -4.011429 -1.827466 1.640914
                      CHANNELS 3 Zrotation Yrotation Xrotation
                      JOINT RightHandThumb3
                      {
                        OFFSET -2.794935 -4e-06 -3e-06
                        CHANNELS 3 Zrotation Yrotation Xrotation
                        JOINT RightHandThumbEnd
                        {
                          OFFSET -3.183852 4e-06 1e-06
                          CHANNELS 3 Zrotation Yrotation Xrotation
                        }
                      }
                    }
                  }
                  JOINT RightHandIndex1
                  {
                    OFFSET -3.253266 -0.520057 2.282866
                    CHANNELS 3 Zrotation Yrotation Xrotation
                    JOINT RightHandIndex2
                    {
                      OFFSET -6.341917 0.012471 0.178266
                      CHANNELS 3 Zrotation Yrotation Xrotation
                      JOINT RightHandIndex3
                      {
                        OFFSET -3.654871 -8e-06 -0.0
                        CHANNELS 3 Zrotation Yrotation Xrotation
                        JOINT RightHandIndex4
                        {
                          OFFSET -2.327586 0.0 1e-06
                          CHANNELS 3 Zrotation Yrotation Xrotation
                          JOINT RightHandIndexEnd
                          {
                            OFFSET -2.76179 -0.180656 -0.113078
                            CHANNELS 3 Zrotation Yrotation Xrotation
                          }
                        }
                      }
                    }
                  }
                  JOINT RightHandMiddle1
                  {
                    OFFSET -3.168106 0.246593 1.00103
                    CHANNELS 3 Zrotation Yrotation Xrotation
                    JOINT RightHandMiddle2
                    {
                      OFFSET -6.180828 -0.258836 -1.000895
                      CHANNELS 3 Zrotation Yrotation Xrotation
                      JOINT RightHandMiddle3
                      {
                        OFFSET -4.348901 0.0 -0.0
                        CHANNELS 3 Zrotation Yrotation Xrotation
                        JOINT RightHandMiddle4
                        {
                          OFFSET -3.00024 -4e-06 -2e-06
                          CHANNELS 3 Zrotation Yrotation Xrotation
                          JOINT RightHandMiddleEnd
                          {
                            OFFSET -2.30252 -0.29437 -0.031706
                            CHANNELS 3 Zrotation Yrotation Xrotation
                          }
                        }
                      }
                    }
                  }
                  JOINT RightHandRing1
                  {
                    OFFSET -2.88569 -0.067952 -0.308858
                    CHANNELS 3 Zrotation Yrotation Xrotation
                    JOINT RightHandRing2
                    {
                      OFFSET -5.854198 -0.48613 -1.373731
                      CHANNELS 3 Zrotation Yrotation Xrotation
                      JOINT RightHandRing3
                      {
                        OFFSET -4.33881 -4e-06 -0.0
                        CHANNELS 3 Zrotation Yrotation Xrotation
                        JOINT RightHandRing4
                        {
                          OFFSET -2.654903 -4e-06 4e-06
                          CHANNELS 3 Zrotation Yrotation Xrotation
                          JOINT RightHandRingEnd
                          {
                            OFFSET -1.933568 0.077527 -5.2e-05
                            CHANNELS 3 Zrotation Yrotation Xrotation
                          }
                        }
                      }
                    }
                  }
                  JOINT RightHandPinky1
                  {
                    OFFSET -2.866425 -0.342796 -1.584145
                    CHANNELS 3 Zrotation Yrotation Xrotation
                    JOINT RightHandPinky2
                    {
                      OFFSET -5.091371 -1.332055 -1.772385
                      CHANNELS 3 Zrotation Yrotation Xrotation
                      JOINT RightHandPinky3
                      {
                        OFFSET -3.062664 -4e-06 1e-06
                        CHANNELS 3 Zrotation Yrotation Xrotation
                        JOINT RightHandPinky4
                        {
                          OFFSET -1.546529 4e-06 -2e-06
                          CHANNELS 3 Zrotation Yrotation Xrotation
                          JOINT RightHandPinkyEnd
                          {
                            OFFSET -1.945119 -0.157718 0.057211
                            CHANNELS 3 Zrotation Yrotation Xrotation
                          }
                        }
                      }
                    }
                  }
                }
              }
            }
          }
        }
      }
    }
    JOINT LeftLeg
    {
      OFFSET 10.043214 -8.434526 2.595655
      CHANNELS 3 Zrotation Yrotation Xrotation
      JOINT LeftShin
      {
        OFFSET -1e-06 -43.221752 -0.802913
        CHANNELS 3 Zrotation Yrotation Xrotation
        JOINT LeftFoot
        {
          OFFSET 1e-06 -42.155094 -3.481523
          CHANNELS 3 Zrotation Yrotation Xrotation
          JOINT LeftToeBase
          {
            OFFSET 0.0 -5.059472 13.231529
            CHANNELS 3 Zrotation Yrotation Xrotation
            JOINT LeftToeEnd
            {
              OFFSET -0.009607 -1.647619 6.513017
              CHANNELS 3 Zrotation Yrotation Xrotation
            }
          }
        }
      }
    }
    JOINT RightLeg
    {
      OFFSET -10.047278 -8.29526 2.620317
      CHANNELS 3 Zrotation Yrotation Xrotation
      JOINT RightShin
      {
        OFFSET 1e-06 -43.362206 -0.805556
        CHANNELS 3 Zrotation Yrotation Xrotation
        JOINT RightFoot
        {
          OFFSET 2e-06 -42.117393 -3.478398
          CHANNELS 3 Zrotation Yrotation Xrotation
          JOINT RightToeBase
          {
            OFFSET -0.0 -5.079609 13.284196
            CHANNELS 3 Zrotation Yrotation Xrotation
            JOINT RightToeEnd
            {
              OFFSET 0.009532 -1.634378 6.460591
              CHANNELS 3 Zrotation Yrotation Xrotation
            }
          }
        }
      }
    }
  }
}
MOTION
Frames: 4
Frame Time: 0.03333333333333333
0.0 0.0 0.0 0.0 -0.0 0.0 2.278466 95.863625 387.052582 1.68504 -0.593769 -0.865014 -1.024319 -1.225784 4.057031 -0.151199 -4.971691 -4.08001 1.444443 -7.979787 11.193726 0.878467 2.462254 13.969752 -0.590395 0.216752 -3.66068 -4.385412 1.970106 -8.764265 7.7e-05 -2.3e-05 6e-06 0.015744 -0.13693 -0.020912 0.749192 -3.825983 -10.630845 -0.717443 3.557208 -10.638963 3.349483 -12.189712 13.849535 -54.660297 -8.121982 15.654541 -178.532837 -65.90818 178.186539 3.664396 -2.913599 -27.999271 -5.882106 9.861284 0.702589 -10.936868 -0.360575 7.156204 0.0 8.774823 -2e-06 -16.385443 18.796595 5.752969 -1.844031 2.498505 -2.507278 -10.163597 4.678944 4.621107 -20.976021 -4e-06 -0.0 -21.226286 2.451696 -3.594002 0.0 -6e-06 -0.0 -1.362681 2.240798 -0.746324 -21.334908 0.584909 3.00832 -13.821211 -3e-06 0.0 -23.887165 -0.24908 -0.839485 -59.943386 2.417053 -1.591464 -0.294023 1.679687 0.833256 -14.218206 0.093215 1.300579 -34.212048 -0.287565 0.967167 -20.033209 0.964535 1.212842 1e-06 -0.0 -0.0 -3.440388 0.788233 0.501655 -15.928183 -3.167309 2.999706 -6.338824 -1e-06 1e-06 -18.123444 3.648181 -4.905672 -3e-06 0.0 -2e-06 12.419374 -1.633761 15.17555 42.492279 3.318594 19.866926 179.594894 78.006874 179.523666 -2.742284 -7.575015 -37.788925 2.243543 -5.255041 -3.18016 14.282899 -0.826595 6.952507 -1e-06 -12.690615 -1e-06 16.25596 -17.927248 2.342635 1.665667 -1.955925 -2.878302 4.727801 -4.170592 4.993927 11.020533 4e-06 -1e-06 12.109058 -3.735718 -2.866788 -1e-06 -0.0 1e-06 1.291987 -1.928552 -1.498091 14.80014 0.567469 3.865611 14.242582 -1.341736 -6.660665 19.631979 0.143928 -0.648243 50.685596 -0.723646 -6.396088 0.353029 -1.511151 -0.03194 20.222805 3.684313 2.316633 18.787285 5e-06 -2e-06 10.751633 -0.479868 1.397906 -0.0 0.0 1e-06 3.273809 0.305947 -0.580112 21.486828 11.830384 2.266135 8.162931 3e-06 2e-06 18.399096 -3.798987 -4.94058 1e-06 -1e-06 -2e-06 4.36913 5.939151 7.703173 0.006374 -0.847455 65.970467 -1.394339 8.893365 6.49301 2.181481 -2.099036 -3.44187 0.0 0.0 2e-06 0.235936 -6.494682 -26.903168 -0.036527 -0.212229 35.680557 -0.078995 -3.488678 -7.181875 -1.429214 0.84057 -0.195539 0.0 0.0 -1e-06 
0.0 0.0 0.0 0.0 -0.0 0.0 1.720811 94.856873 395.048615 -0.617427 0.353877 -2.014323 0.302118 -0.942853 4.446411 0.091646 -3.993495 -3.953679 2.947332 -7.205283 12.343727 0.963951 2.062962 13.536712 -0.929914 -0.737345 -3.650308 -4.791481 0.78282 -9.855054 7.7e-05 -2.2e-05 5e-06 0.01729 -0.18234 -0.016896 0.728109 -3.865483 -10.607501 -0.695189 3.503466 -10.604604 2.074512 -9.347867 15.535742 -59.792747 -3.428169 18.147097 -175.542587 -76.563889 175.006836 4.875594 -2.796343 -22.509636 -5.88211 9.861293 0.70259 -10.936875 -0.360575 7.15621 0.0 8.77483 -2e-06 -16.091976 18.564886 6.322607 -1.844033 2.498507 -2.507281 -10.163602 4.678948 4.62111 -20.976034 -3e-06 -2e-06 -21.226301 2.451697 -3.594007 0.0 -7e-06 0.0 -1.362683 2.2408 -0.746324 -21.334925 0.584911 3.008323 -13.821219 -2e-06 0.0 -23.887178 -0.24908 -0.839486 -61.386837 2.389569 -1.295327 -0.294025 1.679689 0.833257 -14.218216 0.093215 1.300581 -34.212067 -0.287563 0.967167 -20.033222 0.964536 1.212843 -0.0 1e-06 0.0 -3.44039 0.788234 0.501656 -15.928194 -3.167311 2.999709 -6.33883 -1e-06 0.0 -18.123455 3.648185 -4.905676 -4e-06 -0.0 -1e-06 15.504519 -0.050935 16.108061 37.449368 9.44557 17.080229 175.729965 81.252457 175.528534 -5.557309 -7.192388 -35.448673 2.243544 -5.255044 -3.180161 14.2829 -0.826594 6.952509 1e-06 -12.69062 -2e-06 16.512001 -17.795406 2.376638 1.665668 -1.955925 -2.878302 4.727803 -4.170593 4.993927 11.020536 1e-06 -3e-06 12.109061 -3.735722 -2.86679 -1e-06 2e-06 -1e-06 1.291987 -1.928552 -1.498091 14.800139 0.567469 3.865609 14.242583 -1.34174 -6.660667 19.631981 0.143928 -0.648248 50.41785 -0.526419 -6.179992 0.353029 -1.511154 -0.03194 20.222805 3.684315 2.316631 18.787287 4e-06 -3e-06 10.75164 -0.479869 1.397907 0.0 -0.0 1e-06 3.273809 0.305947 -0.580112 21.48683 11.830389 2.266136 8.16293 2e-06 -2e-06 18.399099 -3.798989 -4.940584 2e-06 1e-06 -0.0 6.321406 2.991354 0.045801 -0.014686 -0.703033 78.363068 -1.408152 8.356288 3.317601 2.376175 -2.105862 -3.470904 0.0 0.0 2e-06 2.221907 -8.345575 -21.767859 -0.066162 -0.274308 39.688774 -0.238743 -3.438114 -15.574341 -1.410974 0.758219 0.71343 0.0 0.0 -1e-06 
0.0 0.0 0.0 0.0 -0.0 0.0 1.105887 94.770012 403.09491 -1.263468 2.354141 -2.154702 0.835827 -0.641838 4.585487 0.033684 -2.897912 -3.977408 3.248141 -5.906531 12.40031 2.183153 1.512351 13.603846 -1.344229 -1.972841 -3.581431 -4.566648 -0.601757 -10.371099 7.7e-05 -2.2e-05 6e-06 0.026595 -0.245625 -0.016553 0.731756 -3.926124 -10.620043 -0.681314 3.436728 -10.599323 3.182963 -7.335948 16.410955 -62.815113 2.618728 21.147121 -173.702698 -81.190628 172.854691 5.412006 -2.53995 -18.450001 -5.882108 9.861293 0.702585 -10.936868 -0.360574 7.156204 -3e-06 8.77483 -3e-06 -16.078697 18.336113 6.416234 -1.844032 2.498507 -2.507279 -10.1636 4.678948 4.621107 -20.976027 -0.0 -4e-06 -21.226292 2.451696 -3.594009 -1e-06 -6e-06 -1e-06 -1.362683 2.240801 -0.746324 -21.334913 0.58491 3.00832 -13.821216 -1e-06 -3e-06 -23.887173 -0.249081 -0.83949 -61.768093 2.662217 -1.129056 -0.294026 1.679688 0.833255 -14.218208 0.093217 1.300578 -34.212048 -0.287564 0.96716 -20.033211 0.964535 1.212839 0.0 -0.0 0.0 -3.44039 0.788235 0.501655 -15.928185 -3.16731 2.999706 -6.338829 -1e-06 -1e-06 -18.123447 3.648186 -4.905679 -4e-06 -0.0 -2e-06 15.235435 1.630925 16.067476 37.824306 13.13256 14.447799 172.448761 81.212044 172.464966 -7.4334 -8.158339 -29.559238 2.243543 -5.25504 -3.180159 14.282887 -0.826591 6.952506 -1e-06 -12.690616 -2e-06 16.264559 -17.669123 2.455717 1.665667 -1.955925 -2.878301 4.727797 -4.170588 4.993925 11.020524 4e-06 -3e-06 12.10905 -3.735717 -2.866789 -0.0 1e-06 -0.0 1.291986 -1.928551 -1.49809 14.800125 0.56747 3.865608 14.242571 -1.341737 -6.660662 19.631962 0.143929 -0.648245 49.775917 -0.627943 -6.111536 0.35303 -1.511151 -0.03194 20.222786 3.684313 2.31663 18.78727 5e-06 -1e-06 10.751625 -0.479869 1.397906 0.0 -0.0 0.0 3.273807 0.305947 -0.580111 21.486813 11.830384 2.266137 8.162928 2e-06 1e-06 18.39908 -3.798987 -4.940577 3e-06 0.0 -1e-06 6.223271 -0.378703 -9.970858 -0.044065 -0.402791 85.007866 -1.027353 8.681844 -0.074005 2.291388 -2.106045 -3.62676 0.0 -0.0 4e-06 2.3302 -10.788198 -15.06062 0.001844 -0.179217 38.592842 0.783245 -3.514015 -21.094372 -1.416397 0.802241 0.796069 -0.0 -0.0 -1e-06 
0.0 0.0 0.0 0.0 -0.0 0.0 0.544243 95.670265 410.969391 -0.796868 3.463848 -1.669077 1.001543 -0.088574 4.564005 -0.203554 -1.286708 -4.050928 2.781887 -4.050397 11.755429 2.762745 1.286772 13.911264 -1.634542 -2.963659 -3.463671 -3.87413 -2.04255 -10.309404 7.7e-05 -2.2e-05 6e-06 0.009909 -0.164699 -0.007285 0.70913 -3.85553 -10.653026 -0.693499 3.526487 -10.628841 3.864296 -4.780393 17.039503 -60.663788 9.229331 25.616459 -176.533508 -77.336533 175.703552 3.347458 -2.864 -19.345692 -5.882112 9.861292 0.702591 -10.93688 -0.360576 7.156212 1e-06 8.77483 -1e-06 -16.162453 18.098576 6.183898 -1.844033 2.498507 -2.507279 -10.163608 4.67895 4.621113 -20.976038 0.0 6e-06 -21.226303 2.451702 -3.594001 1e-06 -5e-06 0.0 -1.362682 2.2408 -0.746324 -21.334929 0.584911 3.008329 -13.821221 1e-06 4e-06 -23.887188 -0.249075 -0.83948 -61.545853 2.703484 -1.126079 -0.294025 1.679686 0.833257 -14.218216 0.093214 1.300584 -34.212074 -0.287558 0.967176 -20.033228 0.96454 1.212845 0.0 0.0 1e-06 -3.440391 0.788234 0.501656 -15.928196 -3.167309 2.999712 -6.338831 0.0 3e-06 -18.123459 3.648187 -4.905672 -4e-06 1e-06 -2e-06 12.763127 3.762424 15.628322 40.368042 14.555137 13.273259 177.184525 77.588226 177.519684 -8.396126 -8.794913 -24.328009 2.24354 -5.255037 -3.180159 14.282896 -0.826593 6.952507 -3e-06 -12.690608 0.0 16.139734 -17.715746 2.527164 1.665667 -1.955922 -2.8783 4.727799 -4.170588 4.993927 11.020529 4e-06 -0.0 12.109055 -3.735717 -2.866785 1e-06 0.0 0.0 1.291985 -1.928549 -1.498091 14.800132 0.567469 3.86561 14.242575 -1.341735 -6.660661 19.631975 0.143928 -0.648244 49.665543 -0.767003 -6.037334 0.353029 -1.511151 -0.03194 20.222797 3.684312 2.316632 18.787275 5e-06 0.0 10.751633 -0.479869 1.397907 -0.0 0.0 0.0 3.273808 0.305948 -0.580111 21.48682 11.830379 2.266135 8.16293 2e-06 1e-06 18.399084 -3.798986 -4.940574 3e-06 -0.0 -1e-06 4.861561 -1.47372 -19.350292 -0.013005 -0.047551 84.586876 -0.663254 9.121236 -2.397899 2.070182 -2.089367 -3.850455 0.0 -0.0 4e-06 1.495059 -11.863812 -7.349645 0.001382 0.003573 33.581627 1.844146 -3.784798 -21.627117 -1.439239 0.79393 -0.298987 0.0 -0.0 -1e-06 
